<mxfile host="app.diagrams.net" agent="Mozilla/5.0 (Windows NT 10.0; Win64; x64) AppleWebKit/537.36 (KHTML, like Gecko) Chrome/130.0.0.0 Safari/537.36 Edg/130.0.0.0" version="24.8.4">
  <diagram id="40jkzt3MmAEz0k50h1zv" name="Page-1">
    <mxGraphModel dx="1622" dy="1013" grid="1" gridSize="10" guides="1" tooltips="1" connect="1" arrows="1" fold="1" page="1" pageScale="1" pageWidth="850" pageHeight="1100" math="0" shadow="0">
      <root>
        <mxCell id="0" />
        <mxCell id="1" parent="0" />
        <mxCell id="o4OKbu8fAvsvjaPwZ-LJ-19" value="User" style="html=1;whiteSpace=wrap;strokeColor=none;fillColor=#0079D6;labelPosition=center;verticalLabelPosition=middle;verticalAlign=top;align=center;fontSize=12;outlineConnect=0;spacingTop=-6;fontColor=#FFFFFF;sketch=0;shape=mxgraph.sitemap.user;" vertex="1" parent="1">
          <mxGeometry x="40" y="240" width="60" height="40" as="geometry" />
        </mxCell>
        <mxCell id="o4OKbu8fAvsvjaPwZ-LJ-20" value="" style="edgeStyle=orthogonalEdgeStyle;rounded=0;orthogonalLoop=1;jettySize=auto;html=1;entryX=0;entryY=0;entryDx=0;entryDy=43.5;entryPerimeter=0;" edge="1" parent="1" source="o4OKbu8fAvsvjaPwZ-LJ-21" target="o4OKbu8fAvsvjaPwZ-LJ-23">
          <mxGeometry relative="1" as="geometry" />
        </mxCell>
        <mxCell id="o4OKbu8fAvsvjaPwZ-LJ-21" value="" style="html=1;verticalLabelPosition=bottom;align=center;labelBackgroundColor=#ffffff;verticalAlign=top;strokeWidth=2;strokeColor=#0080F0;shadow=0;dashed=0;shape=mxgraph.ios7.icons.microphone;" vertex="1" parent="1">
          <mxGeometry x="170" y="245" width="12" height="30" as="geometry" />
        </mxCell>
        <mxCell id="o4OKbu8fAvsvjaPwZ-LJ-22" style="edgeStyle=orthogonalEdgeStyle;rounded=0;orthogonalLoop=1;jettySize=auto;html=1;exitX=1;exitY=0.5;exitDx=0;exitDy=0;exitPerimeter=0;entryX=-0.033;entryY=0.527;entryDx=0;entryDy=0;entryPerimeter=0;" edge="1" parent="1" source="o4OKbu8fAvsvjaPwZ-LJ-19" target="o4OKbu8fAvsvjaPwZ-LJ-21">
          <mxGeometry relative="1" as="geometry" />
        </mxCell>
        <mxCell id="o4OKbu8fAvsvjaPwZ-LJ-26" style="edgeStyle=orthogonalEdgeStyle;rounded=0;orthogonalLoop=1;jettySize=auto;html=1;exitX=0;exitY=0;exitDx=0;exitDy=101.5;exitPerimeter=0;entryX=0;entryY=0;entryDx=0;entryDy=33;entryPerimeter=0;" edge="1" parent="1" source="o4OKbu8fAvsvjaPwZ-LJ-23" target="o4OKbu8fAvsvjaPwZ-LJ-27">
          <mxGeometry relative="1" as="geometry">
            <mxPoint x="160" y="376.66666666666663" as="targetPoint" />
          </mxGeometry>
        </mxCell>
        <mxCell id="o4OKbu8fAvsvjaPwZ-LJ-23" value="&lt;div&gt;&lt;br&gt;&lt;/div&gt;&lt;div&gt;&lt;br&gt;&lt;/div&gt;&lt;div&gt;&lt;br&gt;&lt;/div&gt;&lt;div&gt;&lt;br&gt;&lt;/div&gt;SpeechRecognizer" style="shape=module;align=left;spacingLeft=20;align=center;verticalAlign=top;whiteSpace=wrap;html=1;jettyWidth=71;jettyHeight=29;" vertex="1" parent="1">
          <mxGeometry x="220" y="275" width="270" height="165" as="geometry" />
        </mxCell>
        <mxCell id="o4OKbu8fAvsvjaPwZ-LJ-24" value="Listener" style="text;html=1;align=center;verticalAlign=middle;whiteSpace=wrap;rounded=0;" vertex="1" parent="1">
          <mxGeometry x="230" y="300" width="50" height="30" as="geometry" />
        </mxCell>
        <mxCell id="o4OKbu8fAvsvjaPwZ-LJ-25" value="Recognizer" style="text;html=1;align=center;verticalAlign=middle;whiteSpace=wrap;rounded=0;" vertex="1" parent="1">
          <mxGeometry x="230" y="370" width="50" height="20" as="geometry" />
        </mxCell>
        <mxCell id="o4OKbu8fAvsvjaPwZ-LJ-27" value="GenAI" style="shape=module;align=left;spacingLeft=20;align=center;verticalAlign=top;whiteSpace=wrap;html=1;jettyWidth=69;jettyHeight=22;" vertex="1" parent="1">
          <mxGeometry x="220" y="460" width="250" height="110" as="geometry" />
        </mxCell>
        <mxCell id="o4OKbu8fAvsvjaPwZ-LJ-28" value="Input" style="text;html=1;align=center;verticalAlign=middle;whiteSpace=wrap;rounded=0;" vertex="1" parent="1">
          <mxGeometry x="230" y="480" width="50" height="30" as="geometry" />
        </mxCell>
        <mxCell id="o4OKbu8fAvsvjaPwZ-LJ-29" value="Output" style="text;html=1;align=center;verticalAlign=middle;whiteSpace=wrap;rounded=0;" vertex="1" parent="1">
          <mxGeometry x="230" y="520" width="50" height="30" as="geometry" />
        </mxCell>
        <mxCell id="o4OKbu8fAvsvjaPwZ-LJ-35" style="edgeStyle=orthogonalEdgeStyle;rounded=0;orthogonalLoop=1;jettySize=auto;html=1;exitX=1;exitY=0.5;exitDx=0;exitDy=0;exitPerimeter=0;entryX=0;entryY=0.5;entryDx=0;entryDy=0;entryPerimeter=0;" edge="1" parent="1" source="o4OKbu8fAvsvjaPwZ-LJ-30" target="o4OKbu8fAvsvjaPwZ-LJ-34">
          <mxGeometry relative="1" as="geometry" />
        </mxCell>
        <mxCell id="o4OKbu8fAvsvjaPwZ-LJ-30" value="" style="verticalLabelPosition=bottom;html=1;verticalAlign=top;align=center;strokeColor=none;fillColor=#00BEF2;shape=mxgraph.azure.code_file;pointerEvents=1;" vertex="1" parent="1">
          <mxGeometry x="130" y="600" width="30" height="30" as="geometry" />
        </mxCell>
        <mxCell id="o4OKbu8fAvsvjaPwZ-LJ-31" style="edgeStyle=orthogonalEdgeStyle;rounded=0;orthogonalLoop=1;jettySize=auto;html=1;exitX=0;exitY=0;exitDx=0;exitDy=77;exitPerimeter=0;entryX=0.667;entryY=0;entryDx=0;entryDy=0;entryPerimeter=0;" edge="1" parent="1" source="o4OKbu8fAvsvjaPwZ-LJ-27" target="o4OKbu8fAvsvjaPwZ-LJ-30">
          <mxGeometry relative="1" as="geometry" />
        </mxCell>
        <mxCell id="o4OKbu8fAvsvjaPwZ-LJ-33" value="&lt;h1 style=&quot;margin-top: 0px; font-size: 13px;&quot;&gt;&lt;font style=&quot;font-size: 13px;&quot;&gt;Script.bat&lt;/font&gt;&lt;/h1&gt;&lt;p style=&quot;font-size: 13px;&quot;&gt;&lt;font style=&quot;font-size: 13px;&quot;&gt;Saved the code got from output in .bat file for windows and for linux .sh file.&lt;/font&gt;&lt;/p&gt;" style="text;html=1;whiteSpace=wrap;overflow=hidden;rounded=0;" vertex="1" parent="1">
          <mxGeometry x="100" y="630" width="120" height="100" as="geometry" />
        </mxCell>
        <mxCell id="o4OKbu8fAvsvjaPwZ-LJ-34" value="" style="sketch=0;outlineConnect=0;fontColor=#232F3E;gradientColor=none;fillColor=#01A88D;strokeColor=none;dashed=0;verticalLabelPosition=bottom;verticalAlign=top;align=center;html=1;fontSize=12;fontStyle=0;aspect=fixed;shape=mxgraph.aws4.mainframe_modernization_compiler;" vertex="1" parent="1">
          <mxGeometry x="290" y="610" width="60" height="60" as="geometry" />
        </mxCell>
        <mxCell id="o4OKbu8fAvsvjaPwZ-LJ-36" value="Executor" style="text;html=1;align=center;verticalAlign=middle;whiteSpace=wrap;rounded=0;" vertex="1" parent="1">
          <mxGeometry x="300" y="670" width="50" height="30" as="geometry" />
        </mxCell>
        <mxCell id="o4OKbu8fAvsvjaPwZ-LJ-38" value="Audio" style="text;html=1;align=center;verticalAlign=middle;whiteSpace=wrap;rounded=0;" vertex="1" parent="1">
          <mxGeometry x="151" y="275" width="50" height="30" as="geometry" />
        </mxCell>
        <mxCell id="o4OKbu8fAvsvjaPwZ-LJ-39" value="Text" style="text;html=1;align=center;verticalAlign=middle;whiteSpace=wrap;rounded=0;" vertex="1" parent="1">
          <mxGeometry x="150" y="420" width="50" height="20" as="geometry" />
        </mxCell>
        <mxCell id="o4OKbu8fAvsvjaPwZ-LJ-40" value="" style="dashed=0;outlineConnect=0;html=1;align=center;labelPosition=center;verticalLabelPosition=bottom;verticalAlign=top;shape=mxgraph.webicons.json;gradientColor=#DFDEDE" vertex="1" parent="1">
          <mxGeometry x="110" y="516.9" width="40" height="36.2" as="geometry" />
        </mxCell>
      </root>
    </mxGraphModel>
  </diagram>
</mxfile>
